#!OML:ASF I:\Actors\actors\Patient Classification 1\Patient 1\Session 1\Subject1.ASF
:FULLY-SPECIFIED
:DEGREES
947
root 0.105189 17.5765 9.25489 13.8213 -3.41678 -11.7586
lowerback 6.27817 3.05426 4.5155
upperback -5.52246 4.48033 -1.37486
thorax -8.92943 1.84735 -4.60083
lowerneck -19.3625 -2.20378 0.355551
upperneck 21.261 -6.20411 11.8353
head 10.4713 -1.40417 3.25582
rclavicle -7.49418e-014 4.13472e-014
rhumerus 64.1592 39.0984 -25.8409
rradius 68.096
rwrist 22.1789
rhand 33.3983 -52.4831
rfingers 7.12502
rthumb 56.7335 -69.289
lclavicle -7.49418e-014 4.13472e-014
lhumerus 25.6003 -35.9762 67.2117
lradius 51.1015
lwrist 30.1937
lhand -52.489 -26.2205
lfingers 7.12502
lthumb -24.9762 2.16709
rfemur -13.6545 17.8348 28.9106
rtibia 9.0912
rfoot -10.3252 -16.0739
rtoes -1.35202
lfemur -0.989216 -43.5413 -2.78161
ltibia -3.38498
lfoot -28.9113 54.0266
ltoes 14.8977
948
root 0.104951 17.5776 9.25877 13.7913 -3.00487 -11.7413
lowerback 6.29144 2.92051 4.4541
upperback -5.53614 4.30263 -1.27985
thorax -8.98263 1.76557 -4.44523
lowerneck -19.3546 -2.16666 0.373359
upperneck 21.2885 -6.10562 11.6266
head 10.4621 -1.38139 3.19238
rclavicle -1.64991e-014 2.70347e-014
rhumerus 63.0525 39.2302 -27.268
rradius 69.019
rwrist 22.5188
rhand 33.6272 -53.2025
rfingers 7.12502
rthumb 56.935 -69.8425
lclavicle -1.64991e-014 2.70347e-014
lhumerus 25.3699 -35.9785 67.2465
lradius 51.2516
lwrist 30.2486
lhand -52.2499 -25.6471
lfingers 7.12502
lthumb -24.747 2.77207
rfemur -13.5452 17.7805 28.9127
rtibia 8.94176
rfoot -10.3877 -16.3663
rtoes -0.751908
lfemur -1.20712 -43.5943 -2.61794
ltibia -3.33401
lfoot -28.4655 53.7827
ltoes 14.7412
949
root 0.105788 17.5783 9.26152 13.7649 -2.52397 -11.7942
lowerback 6.27601 2.77441 4.5285
upperback -5.53162 4.12213 -1.16981
thorax -8.99104 1.67637 -4.34591
lowerneck -19.3507 -2.12373 0.391875
upperneck 21.3206 -6.00656 11.4441
head 10.4568 -1.35479 3.13865
rclavicle -3.45885e-014 1.74931e-014
rhumerus 62.0821 39.2415 -28.5857
rradius 69.5596
rwrist 23.398
rhand 34.4198 -54.0541
rfingers 7.12502
rthumb 57.6306 -70.1025
lclavicle -3.45885e-014 1.74931e-014
lhumerus 25.1766 -35.9174 67.3379
lradius 51.2601
lwrist 30.1534
lhand -52.2473 -25.9609
lfingers 7.12502
lthumb -24.7446 2.45863
rfemur -13.4481 17.6917 29.0091
rtibia 8.8176
rfoot -10.4587 -16.6806
rtoes -0.296067
lfemur -1.49656 -43.6084 -2.30855
ltibia -3.27404
lfoot -27.7765 53.5149
ltoes 14.2206
950
root 0.106612 17.5786 9.26146 13.7097 -2.05039 -11.8258
lowerback 6.30057 2.63058 4.63656
upperback -5.50322 3.94728 -1.08703
thorax -8.99223 1.58734 -4.2967
lowerneck -19.3829 -2.1024 0.364359
upperneck 21.3485 -5.95304 11.3696
head 10.4664 -1.33903 3.12502
rclavicle -1.98785e-014 3.97569e-014
rhumerus 61.1462 39.1851 -29.9213
rradius 69.8558
rwrist 24.5173
rhand 35.2042 -55.0833
rfingers 7.12502
rthumb 58.3149 -70.5187
lclavicle -1.98785e-014 3.97569e-014
lhumerus 25.0764 -35.7975 67.442
lradius 51.1723
lwrist 30.0233
lhand -52.2745 -26.1774
lfingers 7.12502
lthumb -24.7706 2.23852
rfemur -13.3471 17.6118 29.0922
rtibia 8.72094
rfoot -10.5163 -17.0331
rtoes -0.0475054
lfemur -1.78547 -43.5648 -2.01887
ltibia -3.23929
lfoot -26.6897 53.3327
ltoes 13.1718
951
root 0.107505 17.5785 9.25901 13.6168 -1.70789 -11.7345
lowerback 6.42855 2.52727 4.64009
upperback -5.48594 3.81442 -1.08928
thorax -9.06259 1.51946 -4.29197
lowerneck -19.4724 -2.11449 0.336666
upperneck 21.4072 -5.9808 11.4013
head 10.509 -1.34446 3.13871
rclavicle 2.14687e-014 -3.18055e-014
rhumerus 60.0863 39.1351 -31.5824
rradius 69.9544
rwrist 25.5275
rhand 35.6874 -55.9294
rfingers 7.12502
rthumb 58.7344 -70.9731
lclavicle 2.14687e-014 -3.18055e-014
lhumerus 25.0017 -35.6782 67.5418
lradius 51.1105
lwrist 29.9314
lhand -52.3165 -25.7675
lfingers 7.12502
lthumb -24.8109 2.64289
rfemur -13.2367 17.6005 29.0225
rtibia 8.65585
rfoot -10.5714 -17.3577
rtoes 0.105988
lfemur -1.95902 -43.5138 -1.9846
ltibia -3.18393
lfoot -25.8922 53.1247
ltoes 12.4027
952
root 0.109913 17.5782 9.25656 13.5384 -1.4734 -11.659
lowerback 6.61355 2.45833 4.68444
upperback -5.53373 3.73438 -1.12356
thorax -9.22877 1.46865 -4.3571
lowerneck -19.5226 -2.11787 0.352467
upperneck 21.5061 -6.01932 11.457
head 10.5599 -1.34769 3.15325
rclavicle 6.55989e-015 3.18055e-015
rhumerus 58.9619 39.2303 -33.6149
rradius 69.6509
rwrist 26.2739
rhand 35.8065 -56.2516
rfingers 7.12502
rthumb 58.8376 -71.197
lclavicle 6.55989e-015 3.18055e-015
lhumerus 24.7896 -35.5701 67.731
lradius 51.1191
lwrist 29.9224
lhand -52.6249 -25.5578
lfingers 7.12502
lthumb -25.1064 2.81161
rfemur -13.1512 17.6054 28.9566
rtibia 8.61315
rfoot -10.6132 -17.5824
rtoes 0.244965
lfemur -2.06579 -43.3506 -1.97694
ltibia -3.16558
lfoot -25.2214 52.841
ltoes 11.8018
